<?xml version="1.0" encoding="utf-8"?>
<!-- Generator: Adobe Illustrator 16.0.0, SVG Export Plug-In . SVG Version: 6.00 Build 0)  -->
<!DOCTYPE svg PUBLIC "-//W3C//DTD SVG 1.1//EN" "http://www.w3.org/Graphics/SVG/1.1/DTD/svg11.dtd">
<svg version="1.1" xmlns="http://www.w3.org/2000/svg" xmlns:xlink="http://www.w3.org/1999/xlink" x="0px" y="0px" width="500px"
	 height="500px" viewBox="0 0 500 500" enable-background="new 0 0 500 500" xml:space="preserve">
<g id="trazo">
	<path fill="none" stroke="#000000" stroke-width="4" stroke-miterlimit="10" d="M369.552,285.535c0,0-1.185-69.655,0-92.832
		c0.829-16.251-17.315-23.252-46.399-39.522c-19.764-11.056-38.093-23.238-44.962-26.063c-8.118-3.337-14.732-8.475-34.626,5.892
		c-19.892,14.367-69.625,40.876-69.625,40.876s-12.166,3.303-12.156,20.997c0.008,14.367,0,86.232,0,86.232
		s-1.104,18.391,18.054,28.337c19.149,9.947,71.834,41.605,71.834,41.605s16.574,8.104,33.89-2.948
		c17.313-11.052,68.886-39.786,68.886-39.786S369.6,302.062,369.552,285.535z"/>
</g>
<g id="fondo">
	<path d="M370.646,284.442c0,0-1.183-69.655,0-92.834c0.828-16.25-17.317-23.25-46.398-39.521
		c-19.766-11.058-38.095-23.239-44.964-26.064c-8.12-3.338-14.732-8.474-34.625,5.892c-19.895,14.368-69.626,40.875-69.626,40.875
		s-12.165,3.302-12.157,20.998c0.009,14.367,0,86.232,0,86.232s-1.104,18.391,18.054,28.336
		c19.151,9.946,71.833,41.605,71.833,41.605s16.576,8.103,33.891-2.948c17.315-11.052,68.887-39.786,68.887-39.786
		S370.692,300.967,370.646,284.442z"/>
</g>
<g id="linia-1">
	<polygon fill="#FFFFFF" stroke="#000000" stroke-width="3" stroke-miterlimit="10" points="239.392,251.366 273.738,283.837 
		264.059,295.076 218.477,251.366 264.059,205.162 273.738,216.401 	"/>
</g>
<g id="linea-2">
	<polygon fill="#FFFFFF" stroke="#000000" stroke-width="3" stroke-miterlimit="10" points="293.576,220.852 259.234,188.382 
		268.914,177.142 314.496,220.852 268.914,267.057 259.234,255.817 	"/>
</g>
</svg>
